<svg width="24" height="24" viewBox="0 0 24 24" fill="none" xmlns="http://www.w3.org/2000/svg">
<g clip-path="url(#clip0_1_509)">
<path d="M4 3.5C4.02271 2.81501 4.31631 2.16702 4.81634 1.6983C5.31637 1.22958 5.98197 0.978431 6.667 1C10.611 1 12 6 12 6H6.667C5.98197 6.02157 5.31637 5.77043 4.81634 5.30171C4.31631 4.83298 4.02271 4.18499 4 3.5Z" stroke="white" stroke-width="2" stroke-miterlimit="10" stroke-linecap="square"/>
<path d="M17.333 6H12C12 6 13.389 1 17.333 1C18.018 0.978431 18.6836 1.22958 19.1837 1.6983C19.6837 2.16702 19.9773 2.81501 20 3.5C19.9773 4.18499 19.6837 4.83298 19.1837 5.30171C18.6836 5.77043 18.018 6.02157 17.333 6Z" stroke="white" stroke-width="2" stroke-miterlimit="10" stroke-linecap="square"/>
<path d="M21 13V21C21 21.5304 20.7893 22.0391 20.4142 22.4142C20.0391 22.7893 19.5304 23 19 23H5C4.46957 23 3.96086 22.7893 3.58579 22.4142C3.21071 22.0391 3 21.5304 3 21V13" stroke="white" stroke-width="2" stroke-miterlimit="10" stroke-linecap="square"/>
<path d="M23 6H1V10H23V6Z" stroke="white" stroke-width="2" stroke-miterlimit="10" stroke-linecap="square"/>
<path d="M12 6V23" stroke="white" stroke-width="2" stroke-miterlimit="10" stroke-linecap="square"/>
</g>
<defs>
<clipPath id="clip0_1_509">
<rect width="24" height="24" fill="white"/>
</clipPath>
</defs>
</svg>
