<svg width="28" height="28" viewBox="0 0 28 28" fill="none" xmlns="http://www.w3.org/2000/svg">
<path d="M23.3333 4.49674H4.66668C3.38334 4.49674 2.33334 5.54674 2.33334 6.83008V20.8301C2.33334 22.1134 3.38334 23.1634 4.66668 23.1634H23.3333C24.6167 23.1634 25.6667 22.1134 25.6667 20.8301V6.83008C25.6667 5.54674 24.6167 4.49674 23.3333 4.49674ZM24.3333 19.8301C24.3333 20.9346 23.4379 21.8301 22.3333 21.8301H5.66667C4.56211 21.8301 3.66668 20.9346 3.66668 19.8301V7.83008C3.66668 6.72551 4.56211 5.83008 5.66668 5.83008H22.3333C23.4379 5.83008 24.3333 6.72551 24.3333 7.83008V19.8301ZM4.66668 1.49674C4.66668 1.12855 4.96515 0.830078 5.33334 0.830078H22.6667C23.0349 0.830078 23.3333 1.12855 23.3333 1.49674C23.3333 1.86493 23.0349 2.16341 22.6667 2.16341H5.33334C4.96515 2.16341 4.66668 1.86493 4.66668 1.49674ZM4.66668 26.1634C4.66668 25.7952 4.96515 25.4967 5.33334 25.4967H22.6667C23.0349 25.4967 23.3333 25.7952 23.3333 26.1634C23.3333 26.5316 23.0349 26.8301 22.6667 26.8301H5.33334C4.96515 26.8301 4.66668 26.5316 4.66668 26.1634Z" fill="white"/>
<g filter="url(#filter0_d_1_470)">
<path d="M10.7929 15.4343L10.7929 15.4343L10.7961 15.4329C11.8203 14.9777 13.0782 14.6375 14.5 14.6375C15.9211 14.6375 17.1794 14.9774 18.2053 15.4243C19.0277 15.7905 19.55 16.6161 19.55 17.515V18.55H9.45V17.5242C9.45 16.614 9.97401 15.7907 10.7929 15.4343ZM14.5 8.45C15.7731 8.45 16.8 9.47686 16.8 10.75C16.8 12.0231 15.7731 13.05 14.5 13.05C13.2269 13.05 12.2 12.0231 12.2 10.75C12.2 9.47686 13.2269 8.45 14.5 8.45Z" stroke="white" stroke-width="0.9"/>
</g>
<defs>
<filter id="filter0_d_1_470" x="5" y="8" width="19" height="19" filterUnits="userSpaceOnUse" color-interpolation-filters="sRGB">
<feFlood flood-opacity="0" result="BackgroundImageFix"/>
<feColorMatrix in="SourceAlpha" type="matrix" values="0 0 0 0 0 0 0 0 0 0 0 0 0 0 0 0 0 0 127 0" result="hardAlpha"/>
<feOffset dy="4"/>
<feGaussianBlur stdDeviation="2"/>
<feComposite in2="hardAlpha" operator="out"/>
<feColorMatrix type="matrix" values="0 0 0 0 0 0 0 0 0 0 0 0 0 0 0 0 0 0 0.25 0"/>
<feBlend mode="normal" in2="BackgroundImageFix" result="effect1_dropShadow_1_470"/>
<feBlend mode="normal" in="SourceGraphic" in2="effect1_dropShadow_1_470" result="shape"/>
</filter>
</defs>
</svg>
