<svg width="34" height="28" viewBox="0 0 34 28" fill="none" xmlns="http://www.w3.org/2000/svg">
<path d="M29.922 6.375C30.4242 6.375 30.8486 6.74759 30.9136 7.24566L31.7777 13.8707C31.8558 14.4692 31.3897 15 30.7861 15H2.96391C2.36026 15 1.89423 14.4692 1.9723 13.8707L2.83644 7.24566C2.9014 6.74759 3.32575 6.375 3.82804 6.375H29.922ZM31.875 0.875C31.875 0.391751 31.4832 0 31 0H2.75C2.26675 0 1.875 0.391751 1.875 0.875C1.875 1.35825 2.26675 1.75 2.75 1.75H31C31.4832 1.75 31.875 1.35825 31.875 0.875ZM32.2249 6.18805C32.0204 5.27446 31.2095 4.625 30.2733 4.625H3.47675C2.54053 4.625 1.7296 5.27446 1.52506 6.18806L0.440155 11.034C0.14761 12.3407 0 13.6756 0 15.0147C0 15.9731 0.776923 16.75 1.73531 16.75H2.875V26C2.875 27.1046 3.77043 28 4.875 28H17.625C18.7296 28 19.625 27.1046 19.625 26V16.75H29.125V27.125C29.125 27.6082 29.5168 28 30 28C30.4832 28 30.875 27.6082 30.875 27.125V16.75H32.0147C32.9731 16.75 33.75 15.9731 33.75 15.0147C33.75 13.6756 33.6024 12.3407 33.3098 11.034L32.2249 6.18805ZM5.625 26.25C5.07272 26.25 4.625 25.8023 4.625 25.25V16.75H17.875V25.25C17.875 25.8023 17.4273 26.25 16.875 26.25H5.625Z" fill="white"/>
</svg>
