<svg width="28" height="28" viewBox="0 0 28 28" fill="none" xmlns="http://www.w3.org/2000/svg">
<path d="M25 2.25H22.2C21.9515 2.25 21.75 2.04853 21.75 1.8C21.75 0.805888 20.9441 0 19.95 0H7.3C6.30589 0 5.5 0.805887 5.5 1.8C5.5 2.04853 5.29853 2.25 5.05 2.25H2.25C0.4625 2.25 0 3.7125 0 5.5V7.125C0 11.0675 1.91904 13.4134 5.56226 14.0658C5.91372 14.1288 6.21495 14.3574 6.37672 14.6757C6.88637 15.6784 7.59934 16.5667 8.47239 17.2825C9.30611 17.9661 10.9308 18.4758 12.204 18.7844C12.6656 18.8963 13 19.3035 13 19.7784V24C13 24.5523 12.5523 25 12 25H6.5C5.94772 25 5.5 25.4477 5.5 26V26.25C5.5 26.8023 5.94772 27.25 6.5 27.25H20.75C21.3023 27.25 21.75 26.8023 21.75 26.25V26C21.75 25.4477 21.3023 25 20.75 25H15.25C14.6977 25 14.25 24.5523 14.25 24V19.7784C14.25 19.3035 14.5844 18.8963 15.046 18.7844C16.3192 18.4758 17.9439 17.9661 18.7776 17.2825C19.6507 16.5667 20.3636 15.6784 20.8733 14.6757C21.035 14.3574 21.3363 14.1288 21.6877 14.0658C25.331 13.4134 27.25 11.0675 27.25 7.125V5.5C27.25 3.7125 26.7875 2.25 25 2.25ZM1.25 7.125V4.5C1.25 3.94772 1.69772 3.5 2.25 3.5H4.5C5.05228 3.5 5.5 3.94772 5.5 4.5V11.5744C5.5 12.2678 4.80234 12.7723 4.17091 12.4859C2.66037 11.8005 1.25 10.5913 1.25 7.125ZM13.625 16.875C10.9438 16.875 6.75 14.6812 6.75 12V7.125V3.25C6.75 2.69772 7.19772 2.25 7.75 2.25H19.5C20.0523 2.25 20.5 2.69772 20.5 3.25V12C20.5 14.6812 16.3062 16.875 13.625 16.875ZM26 7.125C26 10.6608 24.592 11.8316 23.0829 12.4955C22.4482 12.7747 21.75 12.2678 21.75 11.5744V4.5C21.75 3.94772 22.1977 3.5 22.75 3.5H25C25.5523 3.5 26 3.94772 26 4.5V7.125Z" fill="white"/>
</svg>
