<svg width="47" height="28" viewBox="0 0 47 28" fill="none" xmlns="http://www.w3.org/2000/svg">
<g filter="url(#filter0_d_114_223)">
<path d="M32.5 16.8675V18.75H14.5V16.8837C14.5 15.252 15.4395 13.7748 16.9093 13.1352L16.9093 13.1352L16.9146 13.1329C18.7354 12.3236 20.9718 11.7188 23.5 11.7188C26.0271 11.7188 28.2642 12.3231 30.0878 13.1177C31.5633 13.7746 32.5 15.2555 32.5 16.8675ZM10.5 13.75C10.733 13.75 10.9624 13.7596 11.1907 13.777C10.7869 14.738 10.5625 15.7859 10.5625 16.8837V18.75H4.75L4.75 16.9487L4.75 16.9481C4.74957 16.4549 4.89411 15.9724 5.16564 15.5606L4.53953 15.1477L5.16564 15.5606C5.43718 15.1489 5.82374 14.826 6.27728 14.6321L6.27728 14.6322L6.28184 14.6302C7.57241 14.0684 8.99828 13.75 10.5 13.75ZM40.7176 14.6299L40.7198 14.6309C41.6511 15.0336 42.25 15.9353 42.25 16.9487V18.75H36.4375V16.8837C36.4375 15.7859 36.2131 14.738 35.8093 13.777C36.0376 13.7596 36.267 13.75 36.5 13.75C37.9515 13.7499 39.3873 14.0495 40.7176 14.6299ZM13 8.125C13 9.49829 11.8733 10.625 10.5 10.625C9.12672 10.625 8 9.49829 8 8.125C8 6.75171 9.12672 5.625 10.5 5.625C11.8733 5.625 13 6.75171 13 8.125ZM39 8.125C39 9.49829 37.8733 10.625 36.5 10.625C35.1267 10.625 34 9.49829 34 8.125C34 6.75171 35.1267 5.625 36.5 5.625C37.8733 5.625 39 6.75171 39 8.125ZM23.5 0.75C25.7833 0.75 27.625 2.59171 27.625 4.875C27.625 7.15829 25.7833 9 23.5 9C21.2167 9 19.375 7.15829 19.375 4.875C19.375 2.59171 21.2167 0.75 23.5 0.75Z" stroke="white" stroke-width="1.5"/>
</g>
<defs>
<filter id="filter0_d_114_223" x="0" y="0" width="47" height="27.5" filterUnits="userSpaceOnUse" color-interpolation-filters="sRGB">
<feFlood flood-opacity="0" result="BackgroundImageFix"/>
<feColorMatrix in="SourceAlpha" type="matrix" values="0 0 0 0 0 0 0 0 0 0 0 0 0 0 0 0 0 0 127 0" result="hardAlpha"/>
<feOffset dy="4"/>
<feGaussianBlur stdDeviation="2"/>
<feComposite in2="hardAlpha" operator="out"/>
<feColorMatrix type="matrix" values="0 0 0 0 0 0 0 0 0 0 0 0 0 0 0 0 0 0 0.25 0"/>
<feBlend mode="normal" in2="BackgroundImageFix" result="effect1_dropShadow_114_223"/>
<feBlend mode="normal" in="SourceGraphic" in2="effect1_dropShadow_114_223" result="shape"/>
</filter>
</defs>
</svg>
