<svg width="38" height="38" viewBox="0 0 38 38" fill="none" xmlns="http://www.w3.org/2000/svg">
<g filter="url(#filter0_d_1_530)">
<path d="M26 12.2H28.8C31.6 12.2 33 10.8 33 8V5.2C33 2.4 31.6 1 28.8 1H26C23.2 1 21.8 2.4 21.8 5.2V8C21.8 10.8 23.2 12.2 26 12.2Z" stroke="white" stroke-width="1.5" stroke-miterlimit="10" stroke-linecap="round" stroke-linejoin="round"/>
<path d="M9.2 29H12C14.8 29 16.2 27.6 16.2 24.8V22C16.2 19.2 14.8 17.8 12 17.8H9.2C6.4 17.8 5 19.2 5 22V24.8C5 27.6 6.4 29 9.2 29Z" stroke="white" stroke-width="1.5" stroke-miterlimit="10" stroke-linecap="round" stroke-linejoin="round"/>
<path d="M10.6 12.2C12.0852 12.2 13.5096 11.61 14.5598 10.5598C15.61 9.50959 16.2 8.08521 16.2 6.6C16.2 5.11479 15.61 3.69041 14.5598 2.6402C13.5096 1.59 12.0852 1 10.6 1C9.11479 1 7.69041 1.59 6.6402 2.6402C5.59 3.69041 5 5.11479 5 6.6C5 8.08521 5.59 9.50959 6.6402 10.5598C7.69041 11.61 9.11479 12.2 10.6 12.2Z" stroke="white" stroke-width="1.5" stroke-miterlimit="10" stroke-linecap="round" stroke-linejoin="round"/>
<path d="M27.4 29C28.8852 29 30.3096 28.41 31.3598 27.3598C32.41 26.3096 33 24.8852 33 23.4C33 21.9148 32.41 20.4904 31.3598 19.4402C30.3096 18.39 28.8852 17.8 27.4 17.8C25.9148 17.8 24.4904 18.39 23.4402 19.4402C22.39 20.4904 21.8 21.9148 21.8 23.4C21.8 24.8852 22.39 26.3096 23.4402 27.3598C24.4904 28.41 25.9148 29 27.4 29Z" stroke="white" stroke-width="1.5" stroke-miterlimit="10" stroke-linecap="round" stroke-linejoin="round"/>
</g>
<defs>
<filter id="filter0_d_1_530" x="0.25" y="0.25" width="37.5" height="37.5" filterUnits="userSpaceOnUse" color-interpolation-filters="sRGB">
<feFlood flood-opacity="0" result="BackgroundImageFix"/>
<feColorMatrix in="SourceAlpha" type="matrix" values="0 0 0 0 0 0 0 0 0 0 0 0 0 0 0 0 0 0 127 0" result="hardAlpha"/>
<feOffset dy="4"/>
<feGaussianBlur stdDeviation="2"/>
<feComposite in2="hardAlpha" operator="out"/>
<feColorMatrix type="matrix" values="0 0 0 0 0 0 0 0 0 0 0 0 0 0 0 0 0 0 0.25 0"/>
<feBlend mode="normal" in2="BackgroundImageFix" result="effect1_dropShadow_1_530"/>
<feBlend mode="normal" in="SourceGraphic" in2="effect1_dropShadow_1_530" result="shape"/>
</filter>
</defs>
</svg>
