<?xml version="1.0" standalone="no"?>
<!DOCTYPE svg PUBLIC "-//W3C//DTD SVG 20010904//EN"
 "http://www.w3.org/TR/2001/REC-SVG-20010904/DTD/svg10.dtd">
<svg version="1.0" xmlns="http://www.w3.org/2000/svg"
 width="213.000000pt" height="241.000000pt" viewBox="0 0 213.000000 241.000000"
 preserveAspectRatio="xMidYMid meet">

<g transform="translate(0.000000,241.000000) scale(0.100000,-0.100000)"
fill="#000000" stroke="none">
<path d="M240 1240 l0 -1000 830 0 830 0 1 58 c3 176 4 1910 1 1925 -4 16 -52
17 -833 17 l-829 0 0 -1000z m110 945 l0 -45 -50 0 -50 0 0 45 0 45 50 0 50 0
0 -45z m220 0 l0 -44 -100 0 -100 0 0 44 0 44 100 0 100 0 0 -44z m100 0 l0
-45 -40 0 -40 0 0 45 0 45 40 0 40 0 0 -45z m110 16 c0 -52 -8 -61 -56 -61
l-44 0 0 45 0 45 50 0 c49 0 50 -1 50 -29z m90 -16 l0 -45 -40 0 -40 0 0 45 0
45 40 0 40 0 0 -45z m100 0 l0 -45 -45 0 -45 0 0 45 0 45 45 0 45 0 0 -45z
m110 0 l0 -45 -45 0 -45 0 0 45 0 45 45 0 45 0 0 -45z m100 0 l0 -45 -40 0
-40 0 0 45 0 45 40 0 40 0 0 -45z m90 0 l0 -45 -40 0 -40 0 0 45 0 45 40 0 40
0 0 -45z m130 0 l0 -46 -57 3 -58 3 -3 43 -3 42 60 0 61 0 0 -45z m90 0 l0
-45 -40 0 -40 0 0 45 0 45 40 0 40 0 0 -45z m110 0 l0 -45 -50 0 -50 0 0 45 0
45 50 0 50 0 0 -45z m90 0 l0 -45 -40 0 -40 0 0 45 0 45 40 0 40 0 0 -45z
m110 0 l0 -45 -50 0 -50 0 0 45 0 45 50 0 50 0 0 -45z m90 0 l0 -45 -40 0 -40
0 0 45 0 45 40 0 40 0 0 -45z m-1540 -100 l0 -45 -50 0 -50 0 0 45 0 45 50 0
50 0 0 -45z m220 -1 l0 -45 -47 3 c-47 3 -48 4 -48 35 0 17 -3 29 -7 26 -5 -2
-8 -17 -8 -34 0 -28 -2 -29 -45 -29 l-45 0 0 44 0 45 100 0 100 0 0 -45z m98
-1 c-3 -47 -4 -47 -40 -51 l-38 -3 0 50 0 51 41 0 40 0 -3 -47z m107 -5 c-1
-27 3 -48 7 -48 4 0 8 23 8 50 l0 50 40 0 40 0 0 -50 c0 -27 3 -50 8 -50 4 0
5 22 4 50 l-4 50 46 0 c34 0 46 -4 46 -15 0 -8 -9 -15 -20 -15 -16 0 -20 -7
-20 -35 0 -19 4 -35 8 -35 5 0 7 14 4 30 -3 23 -1 30 13 30 14 0 16 -7 13 -30
-3 -20 0 -30 9 -30 8 0 13 12 13 30 0 29 2 30 45 30 43 0 45 -1 45 -30 0 -16
5 -30 10 -30 6 0 10 14 10 30 0 28 2 30 40 30 38 0 40 -2 40 -30 0 -22 5 -30
18 -30 13 0 14 2 4 9 -16 10 -12 43 6 49 8 2 12 -7 12 -27 0 -23 4 -31 18 -30
10 0 12 3 5 6 -7 2 -13 18 -13 34 0 22 -5 29 -20 29 -11 0 -20 7 -20 15 0 11
11 15 41 15 l41 0 -4 -50 c-3 -47 -2 -50 21 -50 23 0 23 1 7 13 -12 9 -17 23
-14 47 l3 35 58 3 57 3 0 -45 c0 -34 -4 -46 -17 -49 -10 -3 -2 -5 17 -5 19 0
29 2 23 5 -8 3 -13 23 -13 49 l0 44 40 0 40 0 2 -52 2 -53 3 53 4 53 46 -3 47
-3 -3 -398 c-2 -367 -4 -404 -23 -460 -59 -182 -230 -277 -500 -277 -165 0
-257 31 -350 118 -29 27 -61 71 -78 106 -51 106 -60 178 -60 475 0 309 2 331
36 331 l24 0 1 -317 c1 -175 4 -331 8 -348 3 -16 5 127 3 318 l-4 347 53 0
c29 0 49 3 45 7 -4 4 -13 8 -19 9 -7 0 -20 2 -29 2 -14 2 -18 11 -18 48 l0 45
48 -3 47 -3 0 -47z m305 37 c0 -11 -12 -15 -45 -15 -33 0 -45 4 -45 15 0 11
12 15 45 15 33 0 45 -4 45 -15z m100 0 c0 -11 -11 -15 -40 -15 -29 0 -40 4
-40 15 0 11 11 15 40 15 29 0 40 -4 40 -15z m510 -30 l0 -45 -40 0 -40 0 0 45
0 45 40 0 40 0 0 -45z m110 0 l0 -45 -50 0 -50 0 0 45 0 45 50 0 50 0 0 -45z
m90 0 l0 -45 -40 0 -40 0 0 45 0 45 40 0 40 0 0 -45z m-1540 -95 l0 -40 -50 0
-50 0 0 40 0 40 50 0 50 0 0 -40z m112 18 c-2 -10 2 -18 8 -18 5 0 9 3 9 8 -4
26 4 32 47 32 l45 0 -3 -37 c-3 -37 -4 -38 -45 -41 -36 -3 -43 0 -43 15 -1 17
-1 17 -11 1 -7 -13 -23 -18 -54 -18 l-45 0 0 41 0 40 48 -3 c38 -2 46 -6 44
-20z m1226 -20 l3 -38 -40 0 c-43 0 -59 20 -46 61 5 16 14 20 43 17 35 -3 37
-5 40 -40z m112 2 l0 -40 -50 0 -50 0 0 40 0 40 50 0 50 0 0 -40z m90 0 l0
-40 -40 0 c-39 0 -40 1 -40 33 0 19 3 37 7 40 3 4 21 7 40 7 32 0 33 -1 33
-40z m-1540 -104 c0 -54 0 -55 -27 -51 -16 2 -38 4 -50 4 -21 1 -23 6 -23 51
l0 50 50 0 50 0 0 -54z m114 38 c3 -9 4 -20 0 -25 -3 -5 -1 -17 5 -26 7 -14 9
-9 8 22 l-2 40 43 3 c38 3 43 1 39 -15 -3 -10 -8 -34 -11 -53 l-6 -35 -85 0
-85 0 0 53 0 52 44 0 c31 0 46 -5 50 -16z m1226 -34 c0 -27 -3 -50 -7 -50 -5
0 -18 -3 -30 -6 -19 -5 -23 -1 -28 33 -4 21 -9 46 -12 56 -4 14 2 17 36 17
l41 0 0 -50z m108 -1 l-3 -52 -45 -1 -45 -1 -3 53 -3 52 51 0 51 0 -3 -51z
m92 2 c0 -48 0 -49 -35 -53 -20 -2 -38 -2 -40 1 -3 2 -5 26 -5 53 l0 48 40 0
40 0 0 -49z m-1540 -116 l0 -45 -50 0 -50 0 0 45 0 45 50 0 50 0 0 -45z m119
33 c11 -10 13 -10 7 0 -5 8 2 12 23 12 33 0 35 -6 25 -59 -5 -21 -12 -31 -25
-31 -11 0 -19 6 -20 13 0 10 -2 10 -6 0 -3 -8 -24 -13 -54 -13 l-49 0 0 45 0
45 43 0 c24 0 49 -6 56 -12z m1221 -33 c0 -37 -3 -45 -19 -45 -19 0 -31 25
-31 68 0 17 6 22 25 22 23 0 25 -4 25 -45z m110 0 l0 -45 -50 0 -50 0 0 45 0
45 50 0 50 0 0 -45z m90 0 l0 -45 -40 0 -40 0 0 45 0 45 40 0 40 0 0 -45z
m-1540 -95 l0 -40 -50 0 -50 0 0 40 0 40 50 0 50 0 0 -40z m112 20 c-2 -11 1
-11 11 3 8 9 19 17 26 17 14 0 14 -49 1 -70 -9 -13 -11 -13 -20 0 -6 10 -10
11 -10 3 0 -9 -17 -13 -50 -13 l-50 0 0 41 0 40 48 -3 c35 -2 46 -7 44 -18z
m1226 -23 c2 -20 -1 -37 -6 -37 -13 0 -22 25 -22 57 0 39 25 22 28 -20z m112
3 l0 -40 -50 0 -50 0 0 40 0 40 50 0 50 0 0 -40z m90 0 l0 -40 -40 0 -40 0 0
40 0 40 40 0 40 0 0 -40z m-1540 -96 l0 -46 -31 6 c-17 3 -40 6 -50 6 -15 0
-19 7 -19 33 0 43 5 47 57 47 l43 0 0 -46z m115 4 c1 -36 -1 -38 -31 -38 -18
0 -39 -3 -48 -6 -13 -5 -16 2 -16 40 l0 47 47 -3 48 -3 0 -37z m1333 1 c3 -37
3 -37 -40 -41 -54 -6 -58 -4 -58 36 0 43 6 48 55 44 38 -3 40 -5 43 -39z m92
1 l0 -40 -40 0 c-39 0 -40 1 -40 33 0 19 3 37 7 40 3 4 21 7 40 7 32 0 33 -1
33 -40z m-1403 -7 c-3 -10 -5 -4 -5 12 0 17 2 24 5 18 2 -7 2 -21 0 -30z
m1203 22 c0 -8 -2 -15 -4 -15 -2 0 -6 7 -10 15 -3 8 -1 15 4 15 6 0 10 -7 10
-15z m-1340 -120 l0 -45 -50 0 -50 0 0 45 0 45 50 0 50 0 0 -45z m120 23 c0
-57 -10 -68 -56 -68 l-44 0 0 45 0 45 50 0 c45 0 50 -2 50 -22z m1330 -18 l0
-40 -49 0 c-48 0 -49 0 -53 35 -2 20 -2 38 1 40 2 3 26 5 53 5 l48 0 0 -40z
m90 0 l0 -40 -40 0 -40 0 0 40 0 40 40 0 40 0 0 -40z m-90 -90 l0 -40 -40 0
c-22 0 -40 4 -40 9 0 5 -3 23 -6 40 l-6 31 46 0 46 0 0 -40z m90 0 l0 -40 -40
0 -40 0 0 40 0 40 40 0 40 0 0 -40z m-1540 -5 l0 -35 -50 0 -50 0 0 35 0 35
50 0 50 0 0 -35z m101 3 c-6 -29 -11 -33 -44 -36 -36 -3 -37 -3 -37 32 0 36 0
36 44 36 l43 0 -6 -32z m-101 -98 l0 -50 -50 0 -50 0 0 50 0 50 50 0 50 0 0
-50z m158 18 c29 -28 52 -77 52 -115 0 -44 40 -97 75 -101 50 -6 77 -25 102
-72 32 -61 47 -70 120 -70 62 0 153 -30 153 -51 0 -19 97 -9 141 15 59 32 102
40 144 26 30 -10 40 -9 72 10 21 12 45 36 54 53 19 39 73 77 109 77 37 0 75
51 84 112 8 55 33 89 81 112 19 9 35 22 35 27 0 6 15 9 33 7 31 -3 32 -5 32
-47 0 -39 -3 -45 -23 -46 -13 -1 -27 5 -31 13 -8 14 -12 14 -35 -2 -31 -19
-46 -53 -46 -99 0 -47 -62 -113 -114 -122 -41 -7 -96 -52 -96 -78 0 -9 -25
-30 -55 -47 -54 -31 -57 -31 -104 -19 -46 12 -52 11 -104 -14 -73 -36 -188
-39 -224 -5 -19 17 -40 23 -106 28 -88 6 -147 29 -147 58 0 9 -9 32 -20 50
-18 29 -24 32 -68 32 -47 0 -48 1 -80 54 -22 37 -32 67 -32 94 0 66 -74 137
-82 80 -2 -17 -11 -24 -30 -26 -27 -3 -28 -2 -28 49 l0 52 56 -6 c39 -4 64
-13 82 -29z m1382 -12 c0 -43 -1 -44 -35 -48 -44 -5 -45 -4 -45 42 0 45 5 50
47 50 32 0 33 -1 33 -44z m-1540 -101 l0 -35 -50 0 -50 0 0 35 0 35 50 0 50 0
0 -35z m62 0 c-3 -26 -9 -35 -23 -35 -15 0 -19 7 -19 35 0 30 3 35 23 35 20 0
23 -4 19 -35z m1388 0 c0 -27 -4 -35 -18 -35 -13 0 -22 12 -29 35 -11 34 -11
35 18 35 26 0 29 -3 29 -35z m90 0 c0 -34 -1 -35 -40 -35 -39 0 -40 1 -40 35
0 34 1 35 40 35 39 0 40 -1 40 -35z m-1540 -95 l0 -50 -50 0 -50 0 0 50 0 50
50 0 50 0 0 -50z m44 8 c-10 -64 -24 -70 -24 -10 0 40 4 52 15 52 12 0 14 -8
9 -42z m1406 -3 c0 -50 -16 -61 -26 -17 -3 15 -8 35 -11 45 -3 12 1 17 16 17
18 0 21 -6 21 -45z m90 0 l0 -45 -40 0 -40 0 0 45 0 45 40 0 40 0 0 -45z m0
-106 c0 -43 -3 -50 -16 -45 -9 3 -27 6 -40 6 -21 0 -24 4 -24 38 0 47 4 52 47
52 l33 0 0 -51z m-1540 17 c0 -13 3 -31 6 -40 5 -13 -3 -16 -50 -16 l-56 0 0
40 0 40 50 0 c46 0 50 -2 50 -24z m1450 2 c0 -19 -2 -20 -10 -8 -13 19 -13 30
0 30 6 0 10 -10 10 -22z m-1444 -90 c-3 -13 -6 -33 -6 -45 0 -21 -5 -23 -50
-23 l-50 0 0 45 0 45 56 0 c54 0 56 -1 50 -22z m1518 16 c11 -4 16 -19 16 -45
0 -38 -1 -39 -34 -39 -26 0 -36 5 -40 20 -3 11 -8 29 -11 39 -5 15 0 20 22 24
15 2 29 5 30 6 1 0 8 -2 17 -5z m-1539 -131 c-10 -60 -12 -63 -50 -63 l-35 0
0 50 0 50 45 0 46 0 -6 -37z m1555 -13 c0 -46 -2 -50 -25 -50 -19 0 -26 7 -34
38 -16 57 -14 62 24 62 l35 0 0 -50z m-1220 -25 c0 -8 7 -15 15 -15 8 0 15 6
15 14 0 9 16 14 55 15 55 1 81 -18 28 -20 l-28 -1 25 -7 c16 -4 26 -14 27 -29
3 -22 0 -23 -48 -20 -30 2 -54 8 -56 16 -7 17 -33 15 -33 -3 0 -8 -4 -15 -10
-15 -5 0 -10 14 -10 30 0 20 -5 30 -15 30 -9 0 -15 -9 -15 -24 0 -14 -4 -28
-10 -31 -6 -4 -10 7 -10 24 0 21 -5 31 -15 31 -8 0 -15 5 -15 10 0 6 23 10 50
10 38 0 50 -4 50 -15z m200 -25 c0 -22 -4 -40 -10 -40 -5 0 -10 18 -10 40 0
22 5 40 10 40 6 0 10 -18 10 -40z m54 18 l16 -22 0 22 c0 12 5 22 10 22 6 0
10 -18 10 -40 0 -42 -22 -56 -35 -22 -6 16 -7 16 -16 0 -17 -30 -29 -20 -29
22 0 46 19 54 44 18z m326 -3 c0 -16 6 -25 15 -25 9 0 15 9 15 25 0 24 2 25
63 25 36 0 68 -5 75 -12 9 -9 12 -9 12 0 0 17 103 10 124 -7 14 -11 16 -11 16
3 0 9 5 16 10 16 6 0 10 -18 10 -40 0 -44 -11 -51 -33 -20 -14 21 -14 21 -20
-1 -5 -18 -9 -20 -21 -10 -10 8 -16 9 -21 1 -9 -14 -48 -13 -64 3 -11 10 -14
10 -18 0 -9 -24 -23 -13 -23 17 0 20 -5 30 -15 30 -10 0 -15 -10 -15 -31 0
-20 -4 -29 -12 -26 -7 2 -13 16 -12 30 1 17 -4 27 -12 27 -8 0 -14 -8 -14 -19
0 -48 -73 -56 -78 -8 -5 38 -32 36 -32 -3 0 -16 -4 -30 -10 -30 -5 0 -10 14
-10 30 0 39 -27 41 -32 3 -4 -34 -22 -33 -26 2 -5 36 -32 32 -32 -5 0 -16 -4
-30 -10 -30 -5 0 -10 14 -10 30 0 18 -5 30 -13 30 -20 0 -28 -12 -17 -25 14
-17 -12 -37 -42 -33 -15 2 -24 11 -26 26 -7 48 -2 50 142 51 l136 1 0 -25z
m-936 -57 c-9 -52 -11 -55 -36 -53 -20 1 -23 8 -26 43 -3 42 -3 42 32 42 35 0
35 -1 30 -32z m1576 -69 c0 -101 -12 -126 -23 -47 -4 26 -1 48 6 57 9 11 9 13
0 8 -14 -9 -19 -2 -27 46 -7 35 -5 37 19 37 l25 0 0 -101z m-1439 31 c13 -7
19 -7 19 0 0 5 16 10 35 10 41 0 48 -19 8 -21 -24 -2 -25 -2 -5 -6 27 -5 29
-23 2 -23 -11 0 -20 -7 -20 -15 0 -8 -4 -15 -10 -15 -5 0 -10 5 -10 12 0 9 -3
9 -12 0 -27 -27 -88 -8 -88 28 0 36 41 51 81 30z m305 -1 c4 -8 9 -8 17 0 6 6
44 11 84 11 l73 0 0 -30 c0 -25 4 -30 25 -30 21 0 25 5 25 30 0 28 3 30 35 30
38 0 49 -19 13 -21 l-23 -2 23 -4 c28 -6 28 -20 0 -26 -19 -4 -18 -4 5 -6 17
0 26 -5 22 -11 -4 -6 -42 -10 -91 -9 l-84 2 0 28 c0 19 -5 29 -15 29 -10 0
-15 -10 -15 -30 0 -16 -4 -30 -10 -30 -5 0 -10 14 -10 30 0 19 -5 30 -14 30
-22 0 -28 -17 -16 -40 8 -16 8 -20 -4 -20 -8 0 -18 5 -21 10 -5 8 -11 8 -20 0
-7 -6 -35 -10 -62 -8 -44 3 -48 5 -51 31 -4 37 -22 35 -22 -3 0 -16 -4 -30
-10 -30 -5 0 -10 12 -10 26 0 17 -6 28 -20 31 -11 3 -17 9 -14 14 8 13 181 11
190 -2z m460 -13 c14 -20 14 -20 14 3 0 14 5 21 13 18 6 -2 11 -11 9 -18 -2
-9 3 -8 16 4 21 19 57 23 68 6 4 -8 9 -8 17 0 20 20 27 12 27 -28 l0 -38 -73
1 c-46 1 -80 6 -90 15 -15 12 -17 11 -17 -3 0 -14 -9 -17 -52 -14 -47 3 -53 6
-56 26 -6 44 4 52 59 50 38 -2 55 -8 65 -22z m205 8 c11 -13 14 -13 20 -1 7
11 36 14 131 15 68 0 128 -4 135 -10 7 -6 14 -5 18 2 9 15 51 12 65 -5 10 -12
10 -15 -1 -16 -10 0 -11 -2 -1 -6 18 -7 15 -31 -5 -37 -33 -10 -88 -4 -105 12
-16 14 -18 13 -18 -1 0 -15 -14 -17 -107 -17 -85 0 -110 3 -125 17 -17 15 -18
15 -18 0 0 -10 -4 -17 -10 -17 -5 0 -10 18 -10 40 0 42 9 50 31 24z m-1126
-51 c-4 -16 -8 -38 -11 -50 -2 -13 -11 -23 -19 -23 -11 0 -15 13 -15 50 0 47
2 50 25 50 22 0 25 -3 20 -27z m280 -63 c0 -8 6 -21 13 -28 22 -24 13 -33 -30
-30 -39 3 -43 5 -40 27 1 14 7 31 14 38 14 17 43 13 43 -7z m197 14 c13 -8 -5
-43 -26 -47 -17 -3 -15 -5 7 -6 43 -2 32 -21 -13 -21 -36 0 -40 3 -40 25 0 14
-4 25 -10 25 -5 0 -10 -11 -10 -25 0 -16 -6 -25 -15 -25 -9 0 -15 9 -15 25 0
14 -7 28 -15 31 -35 14 -10 23 57 23 40 -1 76 -3 80 -5z m86 -6 c9 -9 12 -9
12 0 0 7 5 12 10 12 6 0 10 -7 10 -15 0 -8 9 -15 20 -15 11 0 20 6 20 13 0 17
42 16 63 -2 15 -12 17 -11 17 3 0 18 15 22 25 6 4 -7 13 -7 25 0 11 6 31 8 45
4 19 -5 25 -13 25 -35 0 -23 -6 -30 -27 -35 -14 -4 -34 -2 -45 5 -11 7 -18 7
-18 1 0 -15 -21 -12 -42 7 -17 15 -18 15 -18 0 0 -11 -8 -17 -25 -17 -16 0
-25 6 -25 15 0 8 -9 15 -20 15 -11 0 -20 -6 -20 -13 0 -16 -79 -21 -97 -5 -18
15 -16 45 5 57 23 14 45 14 60 -1z m302 -24 c0 -17 5 -24 20 -24 11 0 20 -4
20 -10 0 -5 -13 -10 -30 -10 -28 0 -30 2 -30 41 0 24 4 38 10 34 6 -3 10 -17
10 -31z m124 20 c9 -8 16 -11 16 -5 0 14 36 24 59 16 11 -3 22 -14 24 -23 3
-12 5 -11 6 6 1 23 15 29 26 12 4 -7 11 -8 18 -2 12 10 168 14 199 6 11 -3 16
-15 15 -37 -2 -26 -6 -32 -27 -35 -29 -3 -63 16 -42 25 15 6 6 23 -14 23 -8 0
-14 -10 -14 -25 0 -14 -4 -25 -10 -25 -5 0 -10 11 -10 25 0 18 -5 25 -18 25
-13 0 -18 -7 -18 -22 1 -22 -2 -23 -92 -24 -50 -1 -94 2 -97 6 -3 5 -19 3 -35
-3 -35 -13 -63 -2 -69 28 -7 38 54 59 83 29z m-1010 -33 c3 -4 1 -22 -4 -40
l-9 -31 47 0 47 0 -3 -45 -4 -45 -49 0 -49 0 0 85 c0 76 8 102 24 76z m1613
-13 c-3 -8 -6 -5 -6 6 -1 11 2 17 5 13 3 -3 4 -12 1 -19z m-1317 -103 l0 -44
-100 0 -100 0 0 44 0 44 100 0 100 0 0 -44z m100 0 l0 -45 -40 0 -40 0 0 45 0
45 40 0 40 0 0 -45z m104 12 c-2 -57 -2 -57 -49 -57 l-45 0 0 45 0 45 48 0
c47 0 47 0 46 -33z m46 3 c0 -25 4 -30 25 -30 16 0 25 -6 25 -15 0 -11 -11
-15 -40 -15 l-40 0 0 45 c0 33 4 45 15 45 10 0 15 -10 15 -30z m50 5 c0 -18
-5 -25 -20 -25 -15 0 -20 7 -20 25 0 18 5 25 20 25 15 0 20 -7 20 -25z m100 0
c0 -23 -4 -25 -45 -25 -41 0 -45 2 -45 25 0 23 4 25 45 25 41 0 45 -2 45 -25z
m110 0 c0 -23 -4 -25 -45 -25 -41 0 -45 2 -45 25 0 23 4 25 45 25 41 0 45 -2
45 -25z m100 0 c0 -22 -4 -25 -40 -25 -36 0 -40 3 -40 25 0 23 4 25 40 25 36
0 40 -2 40 -25z m90 0 c0 -22 -4 -25 -40 -25 -36 0 -40 3 -40 25 0 23 4 25 40
25 36 0 40 -2 40 -25z m64 9 c10 -27 7 -34 -18 -34 -28 0 -40 14 -32 35 7 20
42 19 50 -1z m66 -29 l0 -46 -55 3 c-61 3 -79 21 -27 26 28 3 32 7 32 33 0 24
4 29 25 29 23 0 25 -4 25 -45z m90 0 l0 -45 -40 0 -40 0 0 45 0 45 40 0 40 0
0 -45z m110 0 l0 -45 -50 0 -50 0 0 45 0 45 50 0 50 0 0 -45z m90 0 l0 -45
-40 0 -40 0 0 45 0 45 40 0 40 0 0 -45z m110 0 l0 -45 -50 0 -50 0 0 45 0 45
50 0 50 0 0 -45z m90 0 l0 -45 -40 0 -40 0 0 45 0 45 40 0 40 0 0 -45z m-920
-30 c0 -11 -12 -15 -45 -15 -33 0 -45 4 -45 15 0 11 12 15 45 15 33 0 45 -4
45 -15z m110 0 c0 -11 -12 -15 -45 -15 -33 0 -45 4 -45 15 0 11 12 15 45 15
33 0 45 -4 45 -15z m100 0 c0 -11 -11 -15 -40 -15 -29 0 -40 4 -40 15 0 11 11
15 40 15 29 0 40 -4 40 -15z m90 0 c0 -11 -11 -15 -40 -15 -29 0 -40 4 -40 15
0 11 11 15 40 15 29 0 40 -4 40 -15z m-920 -82 l0 -53 -50 0 -50 0 0 48 c0 27
3 52 7 55 3 4 26 6 50 4 l43 -2 0 -52z m117 40 c8 -10 12 -12 8 -5 -3 6 -3 12
2 13 4 0 27 3 51 5 l42 4 0 -55 0 -56 -47 3 c-47 3 -48 4 -48 36 0 17 -3 32
-7 32 -5 0 -8 -16 -8 -35 0 -35 0 -35 -45 -35 l-45 0 0 49 c0 30 5 51 13 54
27 12 71 6 84 -10z m203 -38 l0 -55 -40 0 -40 0 0 55 0 55 40 0 40 0 0 -55z
m105 0 l0 -50 -47 -3 -48 -3 0 49 c0 27 3 52 7 56 4 4 25 6 47 4 l41 -3 0 -50z
m95 0 l0 -55 -40 0 -40 0 0 55 0 55 40 0 40 0 0 -55z m100 0 l0 -55 -45 0 -45
0 0 55 0 55 45 0 45 0 0 -55z m110 0 l0 -55 -45 0 -45 0 0 55 0 55 45 0 45 0
0 -55z m100 0 l0 -55 -40 0 -40 0 0 55 0 55 40 0 40 0 0 -55z m90 0 l0 -55
-40 0 -40 0 0 55 0 55 40 0 40 0 0 -55z m130 0 l0 -56 -57 3 -58 3 -3 39 c-5
60 1 66 63 66 l55 0 0 -55z m90 0 l0 -55 -40 0 -40 0 0 55 0 55 40 0 40 0 0
-55z m110 0 l0 -55 -50 0 -50 0 0 55 0 55 50 0 50 0 0 -55z m90 0 l0 -55 -40
0 -40 0 0 55 0 55 40 0 40 0 0 -55z m110 0 l0 -55 -50 0 -50 0 0 55 0 55 50 0
50 0 0 -55z m90 0 l0 -55 -40 0 -40 0 0 55 0 55 40 0 40 0 0 -55z"/>
<path d="M462 2185 c0 -16 2 -22 5 -12 2 9 2 23 0 30 -3 6 -5 -1 -5 -18z"/>
<path d="M1530 1693 c0 -185 2 -334 4 -332 2 2 7 154 10 337 5 234 4 332 -3
332 -8 0 -11 -104 -11 -337z"/>
<path d="M885 1920 c0 -43 3 -50 20 -50 17 0 20 7 20 50 0 43 -3 50 -20 50
-17 0 -20 -7 -20 -50z"/>
<path d="M950 1953 c0 -10 4 -14 8 -8 4 6 11 13 16 18 5 4 2 7 -7 7 -10 0 -17
-8 -17 -17z"/>
<path d="M988 1920 c-3 -45 -1 -50 17 -50 18 0 20 5 17 45 -4 47 10 59 36 33
9 -9 12 -8 12 5 0 13 -9 17 -39 17 l-39 0 -4 -50z"/>
<path d="M1088 1920 l-3 -51 54 3 c38 2 56 8 59 18 4 12 2 13 -9 3 -22 -22
-59 -16 -59 8 0 18 2 19 15 9 13 -10 15 -9 15 8 0 15 -5 20 -15 16 -10 -4 -15
0 -15 15 0 14 -6 21 -19 21 -16 0 -20 -9 -23 -50z"/>
<path d="M1160 1963 c8 -3 18 -11 22 -17 5 -7 8 -4 8 7 0 11 -7 17 -22 16 -16
0 -18 -2 -8 -6z"/>
<path d="M1211 1953 c0 -11 3 -13 6 -5 2 6 11 12 20 12 12 0 14 -10 11 -45 -3
-40 -1 -45 18 -45 20 0 21 4 16 45 -5 47 9 60 36 33 9 -9 12 -8 12 5 0 14 -10
17 -60 17 -51 0 -60 -3 -59 -17z"/>
<path d="M710 1800 l0 -29 74 2 74 2 -14 28 c-18 34 -31 34 -46 2 -12 -27 -28
-24 -28 6 0 14 -7 19 -30 19 -27 0 -30 -3 -30 -30z m47 -16 c-3 -3 -12 -4 -19
-1 -8 3 -5 6 6 6 11 1 17 -2 13 -5z"/>
<path d="M871 1798 c0 -25 2 -28 8 -15 6 17 8 17 20 3 20 -24 31 -19 31 14 0
17 -4 30 -10 30 -5 0 -10 -8 -10 -17 -1 -17 -1 -17 -11 0 -16 27 -29 20 -28
-15z"/>
<path d="M944 1815 c-12 -29 4 -46 38 -43 34 3 42 20 12 26 -11 3 -14 0 -9 -8
5 -8 3 -11 -6 -8 -23 8 -16 33 9 32 12 0 22 3 22 8 0 15 -60 9 -66 -7z"/>
<path d="M1030 1800 l0 -30 65 2 c36 2 65 4 65 5 0 1 -5 14 -12 28 -14 32 -36
32 -44 0 -4 -18 -13 -25 -30 -25 -19 0 -24 5 -24 25 0 14 -4 25 -10 25 -5 0
-10 -14 -10 -30z"/>
<path d="M1170 1800 c0 -29 2 -31 33 -28 27 2 32 7 32 28 0 21 -5 26 -32 28
-31 3 -33 1 -33 -28z m50 0 c0 -11 -7 -20 -15 -20 -8 0 -15 9 -15 20 0 11 7
20 15 20 8 0 15 -9 15 -20z"/>
<path d="M1250 1800 c0 -27 3 -30 33 -29 30 1 31 1 7 9 -23 7 -23 11 -1 14 22
3 22 16 0 17 l-24 1 25 8 c24 8 23 8 -7 9 -30 1 -33 -2 -33 -29z"/>
<path d="M1320 1816 c0 -8 12 -19 28 -25 l27 -11 -28 5 c-19 4 -26 2 -22 -5 3
-5 17 -10 31 -10 31 0 32 27 2 41 l-23 10 23 -5 c12 -2 22 0 22 5 0 5 -13 9
-30 9 -19 0 -30 -5 -30 -14z"/>
<path d="M1390 1800 c0 -16 5 -30 10 -30 6 0 10 5 10 10 0 6 7 10 15 10 8 0
15 -4 15 -10 0 -5 5 -10 10 -10 6 0 10 14 10 30 0 17 -4 30 -10 30 -5 0 -10
-4 -10 -10 0 -5 -7 -10 -15 -10 -8 0 -15 5 -15 10 0 6 -4 10 -10 10 -5 0 -10
-13 -10 -30z"/>
<path d="M1051 1559 c-2 -57 -23 -68 -75 -39 -46 24 -66 21 -66 -11 0 -27 -29
-24 -70 6 -19 14 -37 25 -41 25 -4 0 -8 -45 -8 -100 l-1 -100 290 0 290 0 0
64 0 64 -50 42 -50 42 0 -31 c0 -25 -4 -31 -22 -31 -12 0 -35 12 -50 27 l-28
27 -16 -22 c-30 -44 -88 -18 -97 43 -4 28 -4 28 -6 -6z"/>
<path d="M1514 1304 c-11 -45 -32 -82 -76 -133 -30 -34 -26 -32 14 10 49 51
90 131 74 146 -3 3 -8 -8 -12 -23z"/>
<path d="M660 1310 c0 -8 5 -22 10 -30 9 -13 10 -13 10 0 0 8 -5 22 -10 30 -9
13 -10 13 -10 0z"/>
<path d="M786 1272 c-3 -5 -2 -18 1 -30 4 -17 12 -22 37 -21 l31 1 -30 8 c-27
7 -27 8 -6 9 13 0 21 4 18 8 -4 3 -2 12 4 20 9 10 5 13 -19 13 -17 0 -33 -4
-36 -8z"/>
<path d="M864 1269 c-8 -13 4 -25 31 -33 12 -3 9 -4 -7 -2 -32 4 -38 -9 -8
-17 10 -3 27 1 37 8 17 13 16 14 -9 24 -33 12 -38 26 -7 16 15 -5 19 -4 15 4
-9 14 -43 14 -52 0z"/>
<path d="M943 1266 c9 -7 17 -21 17 -30 0 -9 5 -16 10 -16 6 0 10 9 10 20 0
11 5 20 10 20 6 0 10 5 10 10 0 6 -17 10 -37 10 -34 -1 -36 -2 -20 -14z"/>
<path d="M1010 1249 c0 -28 2 -30 32 -27 57 5 48 57 -9 58 -19 0 -23 -5 -23
-31z m48 -2 c2 -10 -3 -17 -12 -17 -10 0 -16 9 -16 21 0 24 23 21 28 -4z"/>
<path d="M1194 1266 c-3 -8 -1 -24 6 -35 9 -17 15 -19 30 -11 13 7 26 7 38 1
25 -13 44 1 40 30 -4 31 -37 38 -45 9 l-6 -21 -14 21 c-16 23 -41 26 -49 6z"/>
<path d="M1325 1270 c-3 -5 1 -10 10 -10 9 0 14 -4 11 -9 -4 -5 0 -12 6 -15 7
-4 3 -4 -9 -2 -13 2 -23 0 -23 -5 0 -11 47 -12 53 -1 3 4 1 17 -4 30 -9 23
-33 30 -44 12z"/>
<path d="M1148 1245 c2 -14 8 -25 13 -25 5 0 9 11 9 25 0 14 -6 25 -14 25 -9
0 -12 -8 -8 -25z"/>
<path d="M680 1251 c0 -6 4 -13 10 -16 6 -3 7 1 4 9 -7 18 -14 21 -14 7z"/>
<path d="M1095 1240 c3 -5 10 -10 16 -10 5 0 9 5 9 10 0 6 -7 10 -16 10 -8 0
-12 -4 -9 -10z"/>
<path d="M706 1210 c17 -33 49 -71 73 -87 19 -11 16 -5 -11 23 -21 21 -45 48
-54 59 -8 11 -12 13 -8 5z"/>
<path d="M1345 1109 c-16 -10 -26 -19 -22 -19 11 0 67 29 67 35 0 9 -15 4 -45
-16z"/>
<path d="M810 1103 c0 -11 101 -53 125 -52 11 0 2 6 -20 13 -22 7 -55 20 -72
30 -18 9 -33 13 -33 9z"/>
<path d="M1240 1070 c-30 -10 -49 -18 -41 -19 19 -1 94 20 106 31 13 12 -1 9
-65 -12z"/>
<path d="M978 1043 c12 -2 32 -2 45 0 12 2 2 4 -23 4 -25 0 -35 -2 -22 -4z"/>
<path d="M1093 1043 c15 -2 39 -2 55 0 15 2 2 4 -28 4 -30 0 -43 -2 -27 -4z"/>
<path d="M1445 769 c-4 -6 -2 -15 5 -19 17 -10 42 -1 37 14 -5 16 -34 19 -42
5z"/>
<path d="M407 664 c-14 -14 -7 -35 11 -32 9 2 17 10 17 17 0 16 -18 25 -28 15z"/>
<path d="M698 663 c30 -6 28 -21 -5 -26 -21 -4 -19 -4 7 -3 45 1 50 30 5 33
-20 1 -23 0 -7 -4z"/>
<path d="M1156 656 c4 -9 -3 -16 -18 -19 -21 -4 -20 -4 5 -6 21 -1 27 4 27 19
0 11 -4 20 -10 20 -5 0 -7 -6 -4 -14z"/>
<path d="M1285 660 c-9 -14 3 -30 23 -30 15 0 15 2 2 10 -13 9 -13 11 0 20 13
8 13 10 -2 10 -9 0 -20 -4 -23 -10z"/>
<path d="M1593 663 c9 -2 23 -2 30 0 6 3 -1 5 -18 5 -16 0 -22 -2 -12 -5z"/>
<path d="M1705 651 c-3 -5 -1 -12 5 -16 5 -3 10 1 10 9 0 18 -6 21 -15 7z"/>
<path d="M1520 640 l-25 -8 28 -1 c15 -1 27 4 27 9 0 6 -1 10 -2 9 -2 -1 -14
-5 -28 -9z"/>
<path d="M1593 633 c9 -2 23 -2 30 0 6 3 -1 5 -18 5 -16 0 -22 -2 -12 -5z"/>
<path d="M1748 633 c7 -3 16 -2 19 1 4 3 -2 6 -13 5 -11 0 -14 -3 -6 -6z"/>
<path d="M813 543 c-8 -20 1 -25 31 -17 33 8 33 20 0 27 -16 3 -28 0 -31 -10z"/>
<path d="M1077 554 c-14 -14 -7 -35 11 -32 9 2 17 10 17 17 0 16 -18 25 -28
15z"/>
<path d="M1230 550 c-11 -7 -12 -12 -3 -21 14 -14 46 -4 41 13 -6 16 -20 19
-38 8z"/>
<path d="M1325 550 c-9 -14 3 -30 23 -30 14 0 14 2 3 9 -7 5 -10 14 -7 20 4 6
3 11 -3 11 -5 0 -13 -4 -16 -10z"/>
<path d="M1608 523 c7 -3 16 -2 19 1 4 3 -2 6 -13 5 -11 0 -14 -3 -6 -6z"/>
<path d="M460 430 c0 -5 5 -10 11 -10 5 0 7 5 4 10 -3 6 -8 10 -11 10 -2 0 -4
-4 -4 -10z"/>
<path d="M53 68 c6 -19 2018 -19 2025 0 3 9 -204 12 -1013 12 -809 0 -1016 -3
-1012 -12z"/>
</g>
</svg>
