<svg width="40" height="40" viewBox="0 0 40 40" fill="none" xmlns="http://www.w3.org/2000/svg">
<g filter="url(#filter0_d_122_220)">
<path d="M35 7.375V15.025C35 16.93 34.37 18.535 33.245 19.645C32.135 20.77 30.53 21.4 28.625 21.4V24.115C28.625 25.135 27.485 25.75 26.645 25.18L25.19 24.22C25.325 23.755 25.385 23.245 25.385 22.705V16.6C25.385 13.54 23.345 11.5 20.285 11.5H10.1C9.89 11.5 9.695 11.515 9.5 11.53V7.375C9.5 3.55 12.05 1 15.875 1H28.625C32.45 1 35 3.55 35 7.375Z" stroke="white" stroke-width="1.5" stroke-miterlimit="10" stroke-linecap="round" stroke-linejoin="round"/>
<path d="M25.385 16.6V22.705C25.385 23.245 25.325 23.755 25.19 24.22C24.635 26.425 22.805 27.805 20.285 27.805H16.205L11.675 30.82C11.5231 30.924 11.3457 30.9843 11.1619 30.9944C10.9782 31.0046 10.7952 30.9641 10.6328 30.8775C10.4704 30.7909 10.3349 30.6615 10.241 30.5032C10.147 30.345 10.0983 30.164 10.1 29.98V27.805C8.57 27.805 7.295 27.295 6.41 26.41C5.51 25.51 5 24.235 5 22.705V16.6C5 13.75 6.77 11.785 9.5 11.53C9.695 11.515 9.89 11.5 10.1 11.5H20.285C23.345 11.5 25.385 13.54 25.385 16.6Z" stroke="white" stroke-width="1.5" stroke-miterlimit="10" stroke-linecap="round" stroke-linejoin="round"/>
</g>
<defs>
<filter id="filter0_d_122_220" x="0.25" y="0.25" width="39.5" height="39.496" filterUnits="userSpaceOnUse" color-interpolation-filters="sRGB">
<feFlood flood-opacity="0" result="BackgroundImageFix"/>
<feColorMatrix in="SourceAlpha" type="matrix" values="0 0 0 0 0 0 0 0 0 0 0 0 0 0 0 0 0 0 127 0" result="hardAlpha"/>
<feOffset dy="4"/>
<feGaussianBlur stdDeviation="2"/>
<feComposite in2="hardAlpha" operator="out"/>
<feColorMatrix type="matrix" values="0 0 0 0 0 0 0 0 0 0 0 0 0 0 0 0 0 0 0.25 0"/>
<feBlend mode="normal" in2="BackgroundImageFix" result="effect1_dropShadow_122_220"/>
<feBlend mode="normal" in="SourceGraphic" in2="effect1_dropShadow_122_220" result="shape"/>
</filter>
</defs>
</svg>
