<svg width="30" height="22" viewBox="0 0 30 22" fill="none" xmlns="http://www.w3.org/2000/svg">
<path d="M24.5455 13.6364V2.72727C24.5455 1.22727 23.3182 0 21.8182 0H2.72727C1.22727 0 0 1.22727 0 2.72727V13.6364C0 15.1364 1.22727 16.3636 2.72727 16.3636H21.8182C23.3182 16.3636 24.5455 15.1364 24.5455 13.6364ZM22.8182 12.6364C22.8182 13.7409 21.9228 14.6364 20.8182 14.6364H3.72728C2.62271 14.6364 1.72727 13.7409 1.72727 12.6364V3.72727C1.72727 2.6227 2.6227 1.72727 3.72727 1.72727H22.8182V12.6364ZM12.2727 4.09091C10.0091 4.09091 8.18182 5.91818 8.18182 8.18182C8.18182 10.4455 10.0091 12.2727 12.2727 12.2727C14.5364 12.2727 16.3636 10.4455 16.3636 8.18182C16.3636 5.91818 14.5364 4.09091 12.2727 4.09091ZM29.1364 4.09091C29.6133 4.09091 30 4.47757 30 4.95455V19.0909C30 20.5909 28.7727 21.8182 27.2727 21.8182H4.95454C4.47757 21.8182 4.09091 21.4315 4.09091 20.9545C4.09091 20.4776 4.47757 20.0909 4.95455 20.0909H28.2727V4.95455C28.2727 4.47757 28.6594 4.09091 29.1364 4.09091Z" fill="white"/>
</svg>
